<?xml version="1.0" encoding="utf-8"?>
<svg viewBox="120.168 136.6835 251.5078 67.5021" xmlns="http://www.w3.org/2000/svg">
  <path d="M 129.24 159.441 C 130.584 162.369 131.832 165.105 133.272 167.841 L 143.544 187.185 L 149.784 187.185 L 149.784 153.537 L 145.224 153.537 L 145.224 170.721 C 145.224 173.745 145.224 177.297 145.368 180.849 L 145.08 180.849 C 143.88 178.113 142.344 175.185 140.952 172.497 L 130.92 153.537 L 124.536 153.537 L 124.536 187.185 L 129.192 187.185 L 129.192 169.185 C 129.192 165.105 129.096 162.465 128.952 159.441 Z M 163.794 178.737 C 163.89 184.833 166.818 187.713 172.29 187.713 C 176.37 187.713 178.674 185.793 179.682 184.545 L 179.874 184.545 L 180.642 187.185 L 184.53 187.185 L 184.53 160.785 L 179.778 160.785 L 179.778 178.353 C 179.586 181.569 177.282 183.777 173.73 183.777 C 170.274 183.777 168.546 181.857 168.546 177.969 L 168.546 160.785 L 163.794 160.785 Z M 207.088 183.393 C 203.008 183.393 200.272 181.473 198.496 179.985 L 195.664 183.969 C 197.392 185.553 201.04 187.665 206.56 187.665 C 214.144 187.665 218.224 183.249 218.224 178.209 C 218.224 167.697 202.336 169.089 202.336 162.033 C 202.336 159.345 204.4 157.377 207.904 157.377 C 210.928 157.377 212.944 158.673 214.384 159.921 L 217.36 156.225 C 215.728 154.689 212.56 153.057 208.24 153.057 C 201.904 153.057 197.44 157.089 197.44 162.369 C 197.44 172.977 213.28 171.537 213.28 178.497 C 213.28 181.233 211.168 183.393 207.088 183.393 Z M 237.95 187.425 C 241.502 187.425 243.326 186.705 244.286 186.081 L 243.038 182.385 C 242.222 182.961 240.974 183.393 239.102 183.393 C 236.942 183.393 235.598 182.241 235.598 179.649 L 235.598 164.529 L 242.654 164.529 L 242.654 160.785 L 235.598 160.785 L 235.598 153.921 L 232.43 153.921 L 230.894 160.593 L 227.15 161.553 L 227.15 164.529 L 230.894 164.529 L 230.894 179.745 C 230.894 185.121 233.534 187.425 237.95 187.425 Z M 254.601 178.737 C 254.697 184.833 257.625 187.713 263.097 187.713 C 267.177 187.713 269.481 185.793 270.489 184.545 L 270.681 184.545 L 271.449 187.185 L 275.337 187.185 L 275.337 160.785 L 270.585 160.785 L 270.585 178.353 C 270.393 181.569 268.089 183.777 264.537 183.777 C 261.081 183.777 259.353 181.857 259.353 177.969 L 259.353 160.785 L 254.601 160.785 Z M 303.943 161.217 C 302.839 160.977 301.495 160.737 299.671 160.737 C 292.807 160.737 287.431 165.153 287.431 175.185 C 287.431 183.825 291.319 187.665 297.175 187.665 C 300.631 187.665 302.983 185.985 303.943 184.641 L 304.135 184.641 L 305.047 187.185 L 308.647 187.185 L 308.647 150.753 L 303.943 150.753 Z M 298.375 183.729 C 295.111 183.729 292.279 181.425 292.279 174.705 C 292.279 167.457 295.159 164.769 300.151 164.769 C 301.351 164.769 303.079 165.057 303.991 165.489 L 303.991 180.081 C 302.983 182.241 301.159 183.729 298.375 183.729 Z M 323.144 187.185 L 327.896 187.185 L 327.896 160.785 L 323.144 160.785 Z M 322.232 153.345 C 322.232 155.073 323.624 156.417 325.352 156.417 C 327.176 156.417 328.52 155.073 328.52 153.345 C 328.52 151.473 327.176 150.129 325.352 150.129 C 323.624 150.129 322.232 151.473 322.232 153.345 Z M 345.657 173.793 C 345.657 167.361 347.433 164.241 351.897 164.241 C 356.553 164.241 358.425 167.505 358.425 174.129 C 358.425 180.561 356.793 183.681 352.185 183.681 C 347.577 183.681 345.657 180.369 345.657 173.793 Z M 351.897 187.617 C 360.153 187.617 363.321 182.001 363.321 173.841 C 363.321 165.729 360.537 160.305 352.185 160.305 C 343.929 160.305 340.761 165.921 340.761 174.081 C 340.761 182.193 343.545 187.617 351.897 187.617 Z" style="fill: rgb(255, 255, 255); paint-order: stroke; stroke: rgb(12, 12, 11); stroke-miterlimit: 4.21; stroke-width: 6px;"/>
</svg>