<?xml version="1.0" encoding="utf-8"?>
<svg viewBox="120.173 196.311 229.2891 59.5" xmlns="http://www.w3.org/2000/svg">
  <path d="M 124.008 244.311 L 129.511 244.311 L 129.511 218.512 L 129.611 218.512 L 146.022 244.311 L 151.226 244.311 L 151.226 208.003 L 145.723 208.003 L 145.723 233.802 L 145.623 233.802 L 129.188 208.003 L 124.008 208.003 Z M 162.418 235.645 Q 162.467 240.028 165.281 242.269 Q 167.871 244.56 171.084 244.61 Q 175.217 244.61 177.782 241.547 L 177.882 241.547 L 177.882 244.311 L 183.087 244.311 L 183.087 218.462 L 177.882 218.462 L 177.882 233.852 Q 177.882 236.467 176.438 237.936 Q 175.018 239.405 172.777 239.405 Q 170.536 239.405 169.091 237.936 Q 167.622 236.467 167.622 233.852 L 167.622 218.462 L 162.418 218.462 Z M 194.73 235.496 L 191.119 239.629 Q 196.921 244.61 204.989 244.61 Q 217.465 244.46 217.739 234.051 Q 217.739 230.191 215.324 227.278 Q 212.883 224.314 207.778 223.617 Q 205.189 223.293 203.694 223.044 Q 201.005 222.546 199.785 221.251 Q 198.565 219.981 198.565 218.413 Q 198.614 215.798 200.382 214.478 Q 202.076 213.208 204.616 213.208 Q 209.522 213.308 213.606 215.997 L 213.606 215.997 L 216.669 211.465 Q 211.663 207.854 204.89 207.705 Q 199.262 207.754 196.199 210.643 Q 193.036 213.557 193.036 218.313 Q 193.036 222.272 195.551 225.037 Q 197.992 227.726 202.673 228.498 Q 205.288 228.872 207.48 229.17 Q 212.261 229.992 212.211 234.051 Q 212.111 239.007 205.039 239.106 Q 199.063 239.057 194.73 235.496 Z M 227.365 218.462 L 224.775 218.462 L 224.775 222.422 L 227.365 222.422 L 227.365 237.936 Q 227.365 240.999 229.158 242.618 Q 230.901 244.311 233.64 244.311 L 236.355 244.311 L 236.355 239.405 L 234.412 239.405 Q 232.52 239.455 232.569 237.488 L 232.569 222.422 L 236.355 222.422 L 236.355 218.462 L 232.569 218.462 L 232.569 210.593 L 227.365 210.593 Z M 245.23 235.645 Q 245.28 240.028 248.094 242.269 Q 250.684 244.56 253.896 244.61 Q 258.03 244.61 260.595 241.547 L 260.694 241.547 L 260.694 244.311 L 265.899 244.311 L 265.899 218.462 L 260.694 218.462 L 260.694 233.852 Q 260.694 236.467 259.25 237.936 Q 257.831 239.405 255.59 239.405 Q 253.348 239.405 251.904 237.936 Q 250.435 236.467 250.435 233.852 L 250.435 218.462 L 245.23 218.462 Z M 292.085 241.597 L 292.085 244.311 L 297.29 244.311 L 297.29 208.003 L 292.085 208.003 L 292.085 221.202 L 292.085 221.202 Q 290.641 219.832 289.072 218.96 Q 287.379 218.139 285.386 218.139 Q 280.655 218.263 278.464 221.525 Q 277.393 222.746 277.044 224.738 Q 276.621 226.705 276.621 231.362 Q 276.621 235.944 277.044 237.936 Q 277.393 240.028 278.464 241.248 Q 279.634 242.742 281.377 243.639 Q 283.046 244.56 285.386 244.61 Q 289.52 244.51 292.085 241.597 Z M 286.98 223.343 Q 288.823 223.343 289.894 224.065 Q 290.965 224.788 291.363 225.958 Q 291.861 227.128 292.035 228.498 Q 292.085 229.868 292.085 231.362 Q 292.085 232.731 292.035 234.151 Q 291.861 235.595 291.363 236.766 Q 290.965 237.936 289.894 238.658 Q 288.823 239.405 286.98 239.405 Q 285.137 239.405 284.166 238.708 Q 283.095 237.986 282.597 236.865 Q 282.124 235.695 281.975 234.226 Q 281.825 232.831 281.825 231.362 Q 281.825 229.818 281.975 228.349 Q 282.124 226.979 282.597 225.809 Q 283.095 224.638 284.166 223.966 Q 285.137 223.343 286.98 223.343 Z M 307.239 244.311 L 312.444 244.311 L 312.444 218.462 L 307.239 218.462 Z M 307.239 213.208 L 312.444 213.208 L 312.444 208.003 L 307.239 208.003 Z M 322.046 231.362 Q 322.046 235.446 322.718 237.587 Q 323.416 239.729 324.86 241.298 Q 325.931 242.518 327.848 243.489 Q 329.741 244.56 332.704 244.61 Q 335.767 244.56 337.66 243.489 Q 338.681 243.041 339.328 242.418 Q 340.05 241.871 340.548 241.298 Q 342.092 239.729 342.74 237.587 Q 343.362 235.446 343.362 231.362 Q 343.362 227.278 342.74 225.086 Q 342.092 222.945 340.548 221.476 Q 339.527 220.181 337.66 219.16 Q 335.767 218.188 332.704 218.139 Q 329.741 218.188 327.848 219.16 Q 325.931 220.181 324.86 221.476 Q 323.416 222.945 322.718 225.086 Q 322.046 227.278 322.046 231.362 Z M 338.158 231.412 Q 338.158 234.051 337.909 235.296 Q 337.66 236.566 336.888 237.538 Q 336.315 238.285 335.194 238.857 Q 334.124 239.405 332.704 239.405 Q 331.384 239.405 330.264 238.857 Q 329.193 238.285 328.521 237.538 Q 327.848 236.566 327.549 235.296 Q 327.251 234.051 327.251 231.362 Q 327.251 228.647 327.549 227.377 Q 327.848 226.157 328.521 225.236 Q 329.193 224.364 330.264 223.866 Q 331.384 223.343 332.704 223.343 Q 334.124 223.343 335.194 223.866 Q 336.315 224.364 336.888 225.236 Q 337.66 226.157 337.909 227.377 Q 338.158 228.647 338.158 231.412 Z" style="fill: #F2A202; paint-order: fill; stroke: rgb(0, 72, 120); stroke-miterlimit: 1; stroke-width: 2px; text-transform: capitalize;"/>
</svg>