<?xml version="1.0" encoding="utf-8"?>
<svg viewBox="16.714 29.8378 241.2394 22.3027" xmlns="http://www.w3.org/2000/svg">
  <path d="M 32.926 35.19 L 32.926 34.014 C 32.926 32.649 32.653 31.599 32.107 30.906 C 31.561 30.192 30.637 29.835 29.356 29.835 L 20.074 29.835 L 20.074 29.856 C 19.465 29.898 18.94 30.234 18.625 30.738 C 18.541 30.906 18.457 31.095 18.415 31.263 L 18.394 45.606 C 18.436 45.837 18.52 46.068 18.625 46.257 C 18.961 46.824 19.57 47.16 20.221 47.16 L 29.671 47.16 C 30.301 47.16 30.826 47.055 31.246 46.845 C 31.687 46.635 32.044 46.341 32.296 45.942 C 32.569 45.564 32.737 45.102 32.863 44.556 C 32.968 44.031 33.031 43.422 33.031 42.771 L 33.031 41.364 C 33.031 39.978 32.632 38.928 31.876 38.235 C 32.59 37.521 32.926 36.492 32.926 35.19 Z M 21.481 43.926 L 21.481 33.069 C 21.481 32.985 21.502 32.943 21.523 32.943 L 21.523 32.943 L 28.81 32.943 C 29.209 32.943 29.503 33.048 29.671 33.237 C 29.839 33.426 29.923 33.762 29.923 34.203 L 29.923 35.652 C 29.923 36.051 29.839 36.366 29.65 36.576 C 29.482 36.765 29.125 36.87 28.579 36.87 L 24.505 36.87 C 24.127 36.87 23.812 37.185 23.812 37.563 L 23.812 39.285 C 23.812 39.684 24.127 39.978 24.505 39.978 L 28.579 39.978 C 29.125 39.978 29.482 40.104 29.671 40.314 C 29.839 40.524 29.944 40.86 29.944 41.322 L 29.944 42.75 C 29.944 43.233 29.86 43.569 29.692 43.758 C 29.524 43.947 29.23 44.031 28.81 44.031 L 21.502 44.031 C 21.502 44.031 21.481 44.01 21.481 43.926 Z M 53.138 31.368 C 52.718 30.843 52.172 30.444 51.5 30.192 C 50.849 29.961 50.051 29.835 49.127 29.835 L 44.003 29.835 C 43.079 29.835 42.302 29.961 41.651 30.192 C 40.979 30.444 40.433 30.843 40.013 31.368 C 39.614 31.893 39.299 32.586 39.11 33.426 C 38.921 34.245 38.837 35.232 38.837 36.408 L 38.837 40.566 C 38.837 41.742 38.921 42.75 39.11 43.569 C 39.299 44.409 39.614 45.102 40.013 45.627 C 40.433 46.173 40.979 46.572 41.651 46.803 C 42.281 47.034 43.079 47.16 44.003 47.16 L 49.127 47.16 C 50.051 47.16 50.849 47.034 51.5 46.803 C 52.172 46.572 52.718 46.173 53.138 45.648 C 53.558 45.102 53.852 44.409 54.041 43.569 C 54.209 42.75 54.314 41.742 54.314 40.566 L 54.314 36.408 C 54.314 35.253 54.209 34.245 54.041 33.426 C 53.852 32.586 53.558 31.893 53.138 31.368 Z M 51.185 36.051 L 51.185 40.944 C 51.185 41.553 51.164 42.078 51.08 42.498 C 51.017 42.876 50.891 43.212 50.723 43.422 C 50.576 43.653 50.366 43.8 50.093 43.884 C 49.82 43.989 49.463 44.031 49.022 44.031 L 44.108 44.031 C 43.667 44.031 43.31 43.989 43.037 43.884 C 42.764 43.8 42.554 43.653 42.407 43.422 C 42.239 43.212 42.134 42.876 42.05 42.498 C 41.987 42.078 41.945 41.553 41.945 40.944 L 41.945 36.051 C 41.945 35.442 41.987 34.917 42.05 34.497 C 42.134 34.098 42.239 33.783 42.407 33.552 C 42.554 33.342 42.764 33.195 43.037 33.09 C 43.31 33.006 43.667 32.943 44.108 32.943 L 49.022 32.943 C 49.463 32.943 49.82 33.006 50.093 33.09 C 50.366 33.195 50.576 33.342 50.723 33.552 C 50.891 33.783 51.017 34.098 51.08 34.497 C 51.164 34.917 51.185 35.442 51.185 36.051 Z M 74.417 31.368 C 73.997 30.843 73.451 30.444 72.779 30.192 C 72.128 29.961 71.33 29.835 70.406 29.835 L 65.282 29.835 C 64.358 29.835 63.581 29.961 62.93 30.192 C 62.258 30.444 61.712 30.843 61.292 31.368 C 60.893 31.893 60.578 32.586 60.389 33.426 C 60.2 34.245 60.116 35.232 60.116 36.408 L 60.116 40.566 C 60.116 41.742 60.2 42.75 60.389 43.569 C 60.578 44.409 60.893 45.102 61.292 45.627 C 61.712 46.173 62.258 46.572 62.93 46.803 C 63.56 47.034 64.358 47.16 65.282 47.16 L 70.406 47.16 C 71.33 47.16 72.128 47.034 72.779 46.803 C 73.451 46.572 73.997 46.173 74.417 45.648 C 74.837 45.102 75.131 44.409 75.32 43.569 C 75.488 42.75 75.593 41.742 75.593 40.566 L 75.593 36.408 C 75.593 35.253 75.488 34.245 75.32 33.426 C 75.131 32.586 74.837 31.893 74.417 31.368 Z M 72.464 36.051 L 72.464 40.944 C 72.464 41.553 72.443 42.078 72.359 42.498 C 72.296 42.876 72.17 43.212 72.002 43.422 C 71.855 43.653 71.645 43.8 71.372 43.884 C 71.099 43.989 70.742 44.031 70.301 44.031 L 65.387 44.031 C 64.946 44.031 64.589 43.989 64.316 43.884 C 64.043 43.8 63.833 43.653 63.686 43.422 C 63.518 43.212 63.413 42.876 63.329 42.498 C 63.266 42.078 63.224 41.553 63.224 40.944 L 63.224 36.051 C 63.224 35.442 63.266 34.917 63.329 34.497 C 63.413 34.098 63.518 33.783 63.686 33.552 C 63.833 33.342 64.043 33.195 64.316 33.09 C 64.589 33.006 64.946 32.943 65.387 32.943 L 70.301 32.943 C 70.742 32.943 71.099 33.006 71.372 33.09 C 71.645 33.195 71.855 33.342 72.002 33.552 C 72.17 33.783 72.296 34.098 72.359 34.497 C 72.443 34.917 72.464 35.442 72.464 36.051 Z M 91.454 39.936 C 91.034 39.243 90.614 38.676 90.194 38.277 C 90.32 38.109 90.446 37.941 90.593 37.731 C 90.761 37.458 90.95 37.143 91.16 36.786 L 94.625 30.696 C 94.688 30.549 94.709 30.381 94.688 30.192 C 94.625 29.961 94.457 29.835 94.205 29.835 L 92.126 29.835 C 91.895 29.835 91.748 29.877 91.664 29.961 C 91.58 30.024 91.496 30.108 91.433 30.255 L 88.262 35.862 C 88.136 36.072 88.01 36.24 87.905 36.387 C 87.8 36.513 87.674 36.618 87.569 36.681 C 87.443 36.744 87.296 36.786 87.128 36.807 C 86.96 36.828 86.729 36.849 86.456 36.849 L 84.524 36.849 L 84.524 30.57 C 84.524 29.898 84.104 29.835 83.936 29.835 L 82.004 29.835 C 81.836 29.835 81.395 29.898 81.395 30.57 L 81.395 46.425 C 81.395 47.076 81.836 47.16 82.004 47.16 L 83.936 47.16 C 84.104 47.16 84.524 47.076 84.524 46.425 L 84.524 39.957 L 86.645 39.957 C 87.149 39.957 87.527 40.02 87.779 40.167 C 88.01 40.293 88.241 40.566 88.472 40.986 L 91.748 46.74 C 91.811 46.866 91.895 46.971 91.979 47.034 C 92.063 47.118 92.21 47.16 92.42 47.16 L 94.688 47.16 C 94.982 47.16 95.15 46.992 95.171 46.719 C 95.192 46.509 95.171 46.341 95.087 46.236 L 91.454 39.936 Z M 118.537 29.835 L 116.647 29.835 C 116.353 29.835 116.122 29.856 115.912 29.919 C 115.702 29.982 115.513 30.087 115.345 30.234 C 115.198 30.402 115.051 30.591 114.925 30.843 C 114.799 31.095 114.694 31.41 114.568 31.809 L 110.851 41.091 C 110.83 41.175 110.809 41.175 110.788 41.175 L 110.578 41.175 C 110.578 41.175 110.536 41.175 110.515 41.091 L 106.819 31.809 C 106.693 31.41 106.567 31.095 106.462 30.843 C 106.336 30.591 106.189 30.402 106.042 30.234 C 105.874 30.087 105.664 29.982 105.454 29.919 C 105.244 29.856 104.992 29.835 104.719 29.835 L 102.787 29.835 C 102.073 29.835 101.59 30.066 101.338 30.507 C 101.107 30.906 101.002 31.578 101.002 32.544 L 101.002 46.425 C 101.002 47.076 101.422 47.16 101.611 47.16 L 103.417 47.16 C 103.606 47.16 104.005 47.076 104.005 46.425 L 104.005 33.804 C 104.005 33.783 104.005 33.762 104.005 33.762 L 104.11 33.762 C 104.131 33.762 104.152 33.762 104.173 33.825 L 107.764 42.708 C 107.911 43.149 108.058 43.527 108.205 43.842 C 108.373 44.157 108.541 44.409 108.709 44.619 C 108.919 44.829 109.129 44.997 109.381 45.081 C 109.633 45.165 109.906 45.207 110.221 45.207 L 111.082 45.207 C 111.397 45.207 111.691 45.165 111.922 45.081 C 112.174 44.997 112.405 44.829 112.594 44.619 C 112.762 44.409 112.951 44.157 113.098 43.842 C 113.245 43.527 113.392 43.149 113.539 42.708 L 117.151 33.804 C 117.151 33.762 117.172 33.762 117.193 33.762 L 117.298 33.762 C 117.298 33.762 117.298 33.783 117.298 33.804 L 117.298 46.425 C 117.298 47.076 117.718 47.16 117.886 47.16 L 119.692 47.16 C 119.881 47.16 120.301 47.076 120.301 46.425 L 120.301 32.544 C 120.301 31.578 120.196 30.906 119.965 30.507 C 119.713 30.066 119.23 29.835 118.537 29.835 Z M 141.642 29.835 L 139.311 29.835 C 139.122 29.835 138.87 29.898 138.702 30.213 L 134.082 38.634 L 129.504 30.234 C 129.336 29.898 129.084 29.835 128.895 29.835 L 126.501 29.835 C 126.312 29.835 126.165 29.94 126.123 30.129 C 126.081 30.276 126.102 30.444 126.186 30.591 L 132.486 41.826 L 132.486 46.425 C 132.486 47.076 132.906 47.139 133.074 47.139 L 135.006 47.139 C 135.174 47.139 135.594 47.076 135.594 46.425 L 135.594 41.826 L 141.957 30.591 C 142.041 30.444 142.062 30.276 142.02 30.108 C 141.957 29.94 141.81 29.835 141.642 29.835 Z M 157.993 36.807 L 151.693 36.807 C 151.378 36.807 150.979 36.681 150.979 35.652 L 150.979 34.098 C 150.979 33.72 151.042 33.426 151.147 33.216 C 151.231 33.09 151.357 32.943 151.714 32.943 L 160.261 32.943 C 160.429 32.943 160.849 32.88 160.849 32.229 L 160.849 30.549 C 160.849 29.898 160.429 29.835 160.261 29.835 L 151.21 29.835 C 150.055 29.835 149.215 30.213 148.669 30.99 C 148.123 31.746 147.85 32.754 147.85 33.972 L 147.85 35.568 C 147.85 37.017 148.144 38.193 148.669 38.928 C 149.32 39.789 150.286 39.915 151.168 39.915 L 157.468 39.915 C 157.783 39.915 158.203 40.041 158.203 41.07 L 158.203 42.876 C 158.203 43.254 158.14 43.548 158.014 43.758 C 157.93 43.884 157.804 44.031 157.447 44.031 L 148.48 44.031 C 148.291 44.031 147.871 44.094 147.871 44.745 L 147.871 46.425 C 147.871 47.076 148.291 47.139 148.48 47.139 L 157.951 47.139 C 159.106 47.139 159.967 46.74 160.513 45.963 C 161.038 45.207 161.311 44.22 161.311 43.002 L 161.311 41.154 C 161.311 39.789 161.038 38.718 160.492 37.962 C 159.925 37.206 159.085 36.807 157.993 36.807 Z M 181.631 29.835 L 167.729 29.835 C 167.54 29.835 167.12 29.898 167.12 30.549 L 167.12 32.187 C 167.12 32.88 167.54 32.943 167.729 32.943 L 173.126 32.943 L 173.126 46.425 C 173.126 47.076 173.546 47.139 173.714 47.139 L 175.646 47.139 C 175.835 47.139 176.234 47.076 176.234 46.425 L 176.234 32.943 L 181.631 32.943 C 181.82 32.943 182.24 32.88 182.24 32.187 L 182.24 30.549 C 182.24 29.898 181.82 29.835 181.631 29.835 Z M 202.551 29.835 L 200.619 29.835 C 200.43 29.835 200.031 29.898 200.031 30.549 L 200.031 40.902 C 200.031 41.532 199.989 42.078 199.926 42.477 C 199.863 42.876 199.737 43.191 199.59 43.422 C 199.422 43.632 199.233 43.779 198.96 43.884 C 198.687 43.968 198.309 44.031 197.868 44.031 L 193.332 44.031 C 192.891 44.031 192.513 43.968 192.24 43.884 C 191.967 43.779 191.778 43.632 191.61 43.422 C 191.463 43.191 191.337 42.876 191.253 42.477 C 191.19 42.078 191.148 41.532 191.148 40.902 L 191.148 30.549 C 191.148 29.898 190.749 29.835 190.56 29.835 L 188.649 29.835 C 188.46 29.835 188.04 29.898 188.04 30.549 L 188.04 40.566 C 188.04 41.742 188.124 42.75 188.313 43.569 C 188.502 44.409 188.817 45.102 189.237 45.627 C 189.636 46.173 190.203 46.551 190.854 46.803 C 191.505 47.034 192.303 47.139 193.227 47.139 L 197.952 47.139 C 198.876 47.139 199.674 47.034 200.325 46.803 C 200.997 46.551 201.543 46.173 201.963 45.627 C 202.383 45.102 202.677 44.409 202.866 43.569 C 203.055 42.75 203.139 41.742 203.139 40.566 L 203.139 30.549 C 203.139 29.898 202.74 29.835 202.551 29.835 Z M 223.295 33.741 C 223.085 32.859 222.728 32.124 222.287 31.536 C 221.825 30.969 221.216 30.528 220.502 30.255 C 219.788 29.982 218.948 29.835 217.961 29.835 L 210.632 29.835 L 210.632 29.856 C 210.023 29.898 209.498 30.234 209.183 30.738 C 209.099 30.906 209.015 31.095 208.973 31.263 L 208.952 45.606 C 208.994 45.837 209.078 46.068 209.183 46.257 C 209.519 46.824 210.128 47.16 210.779 47.16 L 217.961 47.16 C 218.948 47.16 219.809 47.013 220.502 46.74 C 221.216 46.467 221.825 46.026 222.287 45.438 C 222.728 44.871 223.085 44.136 223.295 43.254 C 223.505 42.372 223.61 41.322 223.61 40.146 L 223.61 36.849 C 223.61 35.673 223.505 34.623 223.295 33.741 L 223.295 33.741 Z M 212.039 43.926 L 212.039 33.069 C 212.039 32.985 212.06 32.943 212.081 32.943 L 212.081 32.943 L 217.898 32.943 C 218.381 32.943 218.801 33.006 219.137 33.132 C 219.473 33.258 219.725 33.426 219.914 33.699 C 220.124 33.972 220.271 34.329 220.355 34.77 C 220.439 35.253 220.502 35.841 220.502 36.534 L 220.502 40.461 C 220.502 41.154 220.439 41.742 220.355 42.204 C 220.271 42.666 220.124 43.023 219.914 43.296 C 219.725 43.548 219.473 43.737 219.137 43.863 C 218.801 43.989 218.381 44.031 217.898 44.031 L 212.06 44.031 C 212.06 44.031 212.039 44.01 212.039 43.926 Z M 231.93 29.835 L 229.998 29.835 C 229.83 29.835 229.41 29.919 229.41 30.57 L 229.41 46.425 C 229.41 47.076 229.83 47.16 229.998 47.16 L 231.93 47.16 C 232.098 47.16 232.518 47.076 232.518 46.425 L 232.518 30.57 C 232.518 29.919 232.098 29.835 231.93 29.835 Z M 252.627 31.368 C 252.207 30.843 251.661 30.444 250.989 30.192 C 250.338 29.961 249.54 29.835 248.616 29.835 L 243.492 29.835 C 242.568 29.835 241.791 29.961 241.14 30.192 C 240.468 30.444 239.922 30.843 239.502 31.368 C 239.103 31.893 238.788 32.586 238.599 33.426 C 238.41 34.245 238.326 35.232 238.326 36.408 L 238.326 40.566 C 238.326 41.742 238.41 42.75 238.599 43.569 C 238.788 44.409 239.103 45.102 239.502 45.627 C 239.922 46.173 240.468 46.572 241.14 46.803 C 241.77 47.034 242.568 47.16 243.492 47.16 L 248.616 47.16 C 249.54 47.16 250.338 47.034 250.989 46.803 C 251.661 46.572 252.207 46.173 252.627 45.648 C 253.047 45.102 253.341 44.409 253.53 43.569 C 253.698 42.75 253.803 41.742 253.803 40.566 L 253.803 36.408 C 253.803 35.253 253.698 34.245 253.53 33.426 C 253.341 32.586 253.047 31.893 252.627 31.368 Z M 250.674 36.051 L 250.674 40.944 C 250.674 41.553 250.653 42.078 250.569 42.498 C 250.506 42.876 250.38 43.212 250.212 43.422 C 250.065 43.653 249.855 43.8 249.582 43.884 C 249.309 43.989 248.952 44.031 248.511 44.031 L 243.597 44.031 C 243.156 44.031 242.799 43.989 242.526 43.884 C 242.253 43.8 242.043 43.653 241.896 43.422 C 241.728 43.212 241.623 42.876 241.539 42.498 C 241.476 42.078 241.434 41.553 241.434 40.944 L 241.434 36.051 C 241.434 35.442 241.476 34.917 241.539 34.497 C 241.623 34.098 241.728 33.783 241.896 33.552 C 242.043 33.342 242.253 33.195 242.526 33.09 C 242.799 33.006 243.156 32.943 243.597 32.943 L 248.511 32.943 C 248.952 32.943 249.309 33.006 249.582 33.09 C 249.855 33.195 250.065 33.342 250.212 33.552 C 250.38 33.783 250.506 34.098 250.569 34.497 C 250.653 34.917 250.674 35.442 250.674 36.051 Z" style="fill: rgb(255, 255, 255); stroke: rgb(6, 6, 5); stroke-linecap: square; stroke-miterlimit: 2.66;"/>
</svg>